<svg xmlns="http://www.w3.org/2000/svg" xmlns:xlink="http://www.w3.org/1999/xlink" viewBox="0 0 328.36 180"><defs><style>.cls-1{isolation:isolate;}.cls-2{fill:url(#linear-gradient);}.cls-3{fill:#bdc1c6;}.cls-4{fill:#dadce0;}.cls-5{fill:#f8f9fa;}.cls-11,.cls-12,.cls-21,.cls-22,.cls-23,.cls-24,.cls-25,.cls-26,.cls-29,.cls-31,.cls-33,.cls-34,.cls-35,.cls-36,.cls-43,.cls-6,.cls-8{fill:none;}.cls-6{stroke:#dadce0;}.cls-23,.cls-24,.cls-25,.cls-26,.cls-29,.cls-6{stroke-miterlimit:10;}.cls-21,.cls-29,.cls-31,.cls-34,.cls-35,.cls-6,.cls-8{stroke-width:2px;}.cls-7{fill:#ea4335;}.cls-11,.cls-12,.cls-36,.cls-8{stroke:#fff;}.cls-11,.cls-12,.cls-21,.cls-22,.cls-23,.cls-24,.cls-25,.cls-26,.cls-29,.cls-31,.cls-34,.cls-35,.cls-36,.cls-8{stroke-linecap:round;}.cls-11,.cls-12,.cls-21,.cls-22,.cls-31,.cls-33,.cls-34,.cls-35,.cls-36,.cls-8{stroke-linejoin:round;}.cls-10,.cls-40,.cls-42,.cls-9{mix-blend-mode:multiply;}.cls-10{opacity:0.5;fill:url(#linear-gradient-2);}.cls-12{stroke-width:1.5px;}.cls-13{fill:url(#linear-gradient-3);}.cls-14{fill:url(#linear-gradient-4);}.cls-15{fill:url(#linear-gradient-5);}.cls-16{fill:#e8eaed;}.cls-17{opacity:0.2;fill:url(#linear-gradient-6);}.cls-18{fill:url(#linear-gradient-7);}.cls-19{fill:url(#linear-gradient-8);}.cls-20{fill:url(#linear-gradient-9);}.cls-21,.cls-22{stroke:silver;}.cls-23,.cls-31{stroke:#4285f4;}.cls-23,.cls-24,.cls-25,.cls-26{stroke-width:7px;}.cls-24{stroke:#ea4335;}.cls-25{stroke:#34a853;}.cls-26,.cls-35{stroke:#fbbc04;}.cls-27{fill:url(#linear-gradient-10);}.cls-28{fill:url(#linear-gradient-11);}.cls-29{stroke:#e8eaed;}.cls-30{fill:#e9eaed;}.cls-32{fill:#4285f4;}.cls-33,.cls-34{stroke:#e9eaed;}.cls-36{stroke-width:1.15px;}.cls-37{fill:#8ab4f8;}.cls-38{fill:url(#linear-gradient-12);}.cls-39{fill:#fbbc04;}.cls-40{fill:url(#linear-gradient-13);}.cls-41{fill:#fff;}.cls-42{fill:url(#linear-gradient-14);}.cls-43{opacity:0.1;}</style><linearGradient id="linear-gradient" x1="242.15" y1="123.65" x2="191.43" y2="123.65" gradientUnits="userSpaceOnUse"><stop offset="0" stop-color="#9aa0a6"/><stop offset="1" stop-color="#9aa0a6" stop-opacity="0"/></linearGradient><linearGradient id="linear-gradient-2" x1="272.44" y1="85.56" x2="272.44" y2="45.3" gradientUnits="userSpaceOnUse"><stop offset="0" stop-color="#c5221f"/><stop offset="1" stop-color="#c5221f" stop-opacity="0"/></linearGradient><linearGradient id="linear-gradient-3" x1="117.11" y1="125.72" x2="86.32" y2="125.72" xlink:href="#linear-gradient"/><linearGradient id="linear-gradient-4" x1="133.28" y1="133.4" x2="105.02" y2="133.4" xlink:href="#linear-gradient"/><linearGradient id="linear-gradient-5" x1="171.52" y1="146.89" x2="136.93" y2="146.89" xlink:href="#linear-gradient"/><linearGradient id="linear-gradient-6" x1="178.93" y1="162.16" x2="178.93" y2="130.48" gradientUnits="userSpaceOnUse"><stop offset="0" stop-color="#9aa0a6"/><stop offset="0.15" stop-color="#9aa0a6" stop-opacity="0.97"/><stop offset="0.31" stop-color="#9aa0a6" stop-opacity="0.9"/><stop offset="0.46" stop-color="#9aa0a6" stop-opacity="0.77"/><stop offset="0.62" stop-color="#9aa0a6" stop-opacity="0.6"/><stop offset="0.79" stop-color="#9aa0a6" stop-opacity="0.37"/><stop offset="0.95" stop-color="#9aa0a6" stop-opacity="0.1"/><stop offset="1" stop-color="#9aa0a6" stop-opacity="0"/></linearGradient><linearGradient id="linear-gradient-7" x1="163.04" y1="99.39" x2="141.75" y2="99.39" gradientUnits="userSpaceOnUse"><stop offset="0" stop-color="#9aa0a6"/><stop offset="0.33" stop-color="#9ea4aa"/><stop offset="0.68" stop-color="#abb0b5"/><stop offset="1" stop-color="#bdc1c6"/></linearGradient><linearGradient id="linear-gradient-8" x1="163.04" y1="59.36" x2="141.75" y2="59.36" xlink:href="#linear-gradient-7"/><linearGradient id="linear-gradient-9" x1="194.29" y1="154.69" x2="194.29" y2="140.95" xlink:href="#linear-gradient-7"/><linearGradient id="linear-gradient-10" x1="112.74" y1="111.01" x2="62.02" y2="111.01" xlink:href="#linear-gradient"/><linearGradient id="linear-gradient-11" x1="60.52" y1="136.56" x2="9.8" y2="136.56" xlink:href="#linear-gradient"/><linearGradient id="linear-gradient-12" x1="161.98" y1="157.28" x2="132.65" y2="157.28" xlink:href="#linear-gradient"/><linearGradient id="linear-gradient-13" x1="50.78" y1="68.85" x2="38.25" y2="81.37" gradientUnits="userSpaceOnUse"><stop offset="0" stop-color="#fbbc04"/><stop offset="1" stop-color="#fbbc04" stop-opacity="0"/></linearGradient><linearGradient id="linear-gradient-14" x1="144.46" y1="137.82" x2="187.07" y2="137.82" gradientUnits="userSpaceOnUse"><stop offset="0" stop-color="#4285f4" stop-opacity="0.4"/><stop offset="1" stop-color="#4285f4" stop-opacity="0"/></linearGradient></defs><title>2. Your relationship with Google
</title><g class="cls-1"><g id="Layer_2" data-name="Layer 2"><g id="Guides"><rect class="cls-2" x="181.63" y="120.57" width="53.56" height="6.14"/><path class="cls-3" d="M222.61,68.56h5.29a0,0,0,0,1,0,0v52.86a0,0,0,0,1,0,0H217.32a0,0,0,0,1,0,0V73.84A5.29,5.29,0,0,1,222.61,68.56Z"/><path class="cls-4" d="M226.13,68.56h56.39a5.29,5.29,0,0,1,5.29,5.29v47.58a0,0,0,0,1,0,0h-67a0,0,0,0,1,0,0V73.84A5.29,5.29,0,0,1,226.13,68.56Z"/><path class="cls-3" d="M217.32,119.66H264.9a0,0,0,0,1,0,0v7a0,0,0,0,1,0,0H222.61a5.29,5.29,0,0,1-5.29-5.29v-1.76A0,0,0,0,1,217.32,119.66Z"/><path class="cls-4" d="M239.84,119.66h68.72a0,0,0,0,1,0,0v1.76a5.29,5.29,0,0,1-5.29,5.29H245.12a5.29,5.29,0,0,1-5.29-5.29v-1.76A0,0,0,0,1,239.84,119.66Z"/><path class="cls-3" d="M265.39,119.66H283a0,0,0,0,1,0,0V120a3.22,3.22,0,0,1-3.22,3.22H268.6a3.22,3.22,0,0,1-3.22-3.22v-.31A0,0,0,0,1,265.39,119.66Z"/><rect class="cls-5" x="226.13" y="73.84" width="56.39" height="42.29"/><polyline class="cls-6" points="267.16 72.76 239.25 101.09 222.44 84.27"/><polyline class="cls-6" points="275.26 72.76 242.89 104.82 245.79 107.68 285.56 92.27"/><polyline class="cls-6" points="221.85 115.69 233.23 104.31 246.95 117.79"/><polyline class="cls-6" points="221.77 92.28 229.66 100.41 221.33 108.74"/><polyline class="cls-6" points="284.19 98.42 250.13 111.71 256.02 117.79"/><rect class="cls-4" x="230.46" y="76.49" width="13.67" height="3.38" rx="0.74"/><rect class="cls-7" x="274.89" y="109.92" width="3.1" height="2.97" rx="0.65"/><rect class="cls-7" x="274.89" y="105.38" width="3.1" height="2.97" rx="0.65"/><line class="cls-8" x1="231.34" y1="83.47" x2="238.9" y2="83.47"/><line class="cls-8" x1="231.34" y1="87.87" x2="238.9" y2="87.87"/><path class="cls-7" d="M272.44,49.47A12.49,12.49,0,0,1,284.93,62a12.15,12.15,0,0,1-.32,2.78A12.42,12.42,0,0,1,283,68.55l-.54.8L272.44,83.2,262.39,69.35l-.55-.8a12.42,12.42,0,0,1-1.57-3.81A12.15,12.15,0,0,1,260,62,12.49,12.49,0,0,1,272.44,49.47Z"/><g class="cls-9"><path class="cls-10" d="M272.44,49.47A12.49,12.49,0,0,1,284.93,62a12.15,12.15,0,0,1-.32,2.78A12.42,12.42,0,0,1,283,68.55l-.54.8L272.44,83.2,262.39,69.35l-.55-.8a12.42,12.42,0,0,1-1.57-3.81A12.15,12.15,0,0,1,260,62,12.49,12.49,0,0,1,272.44,49.47Z"/></g><path class="cls-11" d="M275.56,56.55a6.26,6.26,0,1,0,2.29,2.29"/><circle class="cls-12" cx="272.44" cy="61.96" r="6.25"/><rect class="cls-13" x="85.42" y="123.54" width="32.44" height="4.36"/><rect class="cls-14" x="102.86" y="131.22" width="32.44" height="4.36"/><rect class="cls-15" x="131.27" y="144.71" width="32.44" height="4.36"/><polygon class="cls-16" points="117.59 120.22 140.64 120.22 140.64 135.58 125.28 127.9 117.59 120.22"/><polygon class="cls-3" points="156.02 127.9 163.71 135.58 132.98 135.58 140.66 127.9 140.66 63.2 156.02 63.2 156.02 127.9"/><circle class="cls-16" cx="201.83" cy="63.2" r="7.68"/><circle class="cls-16" cx="163.7" cy="141.39" r="7.68"/><polyline class="cls-16" points="209.51 141.38 209.51 63.2 201.83 55.52 148.34 55.52 156.02 63.2 156.02 141.38 163.71 149.07 199.4 149.07"/><path class="cls-17" d="M201.83,55.52H148.34L156,63.2v78.19a7.68,7.68,0,0,0,7.68,7.68h35.7l10.11-7.68V63.2A7.68,7.68,0,0,0,201.83,55.52Z"/><polygon class="cls-18" points="156.01 127.9 156.01 135.58 132.96 135.58 140.64 127.9 140.64 63.2 156.01 63.2 156.01 127.9"/><path class="cls-19" d="M140.64,63.2a7.69,7.69,0,0,1,15.37,0"/><path class="cls-16" d="M140.64,127.9a7.69,7.69,0,0,1-15.37,0"/><path class="cls-3" d="M109.91,127.9a7.68,7.68,0,1,1,15.36,0"/><path class="cls-3" d="M163.7,149.07a7.68,7.68,0,0,0,7.69-7.68h45.8v7.68Z"/><path class="cls-3" d="M224.87,141.39a7.68,7.68,0,0,1-15.36,0"/><path class="cls-20" d="M217.19,141.39h-45.8a7.68,7.68,0,0,1-7.69,7.68h53.49a7.68,7.68,0,0,0,7.68-7.68Z"/><line class="cls-21" x1="173.27" y1="68.03" x2="193.5" y2="68.03"/><line class="cls-22" x1="166.62" y1="92.33" x2="200.15" y2="92.33"/><line class="cls-22" x1="166.62" y1="100.43" x2="200.15" y2="100.43"/><line class="cls-22" x1="166.62" y1="108.52" x2="200.15" y2="108.52"/><line class="cls-22" x1="166.62" y1="116.54" x2="200.15" y2="116.54"/><line class="cls-22" x1="166.62" y1="124.64" x2="200.15" y2="124.64"/><line class="cls-21" x1="183.39" y1="132.7" x2="200.15" y2="132.7"/><line class="cls-23" x1="172.8" y1="79.78" x2="172.8" y2="79.78"/><line class="cls-24" x1="193.98" y1="79.78" x2="193.98" y2="79.78"/><line class="cls-25" x1="179.86" y1="79.78" x2="179.86" y2="79.78"/><line class="cls-26" x1="186.92" y1="79.78" x2="186.92" y2="79.78"/><rect class="cls-27" x="52.23" y="107.94" width="53.56" height="6.14"/><rect class="cls-28" y="133.49" width="53.56" height="6.14"/><rect class="cls-4" x="70.67" y="50.62" width="74.01" height="52.86" rx="5.29" transform="translate(184.73 -30.62) rotate(90)"/><rect class="cls-5" x="75.96" y="55.91" width="63.44" height="42.29" transform="translate(184.73 -30.62) rotate(90)"/><line class="cls-8" x1="91.94" y1="62.99" x2="121.71" y2="62.99"/><line class="cls-29" x1="91.94" y1="78.87" x2="121.65" y2="78.87"/><line class="cls-29" x1="91.94" y1="86.53" x2="113.75" y2="86.53"/><rect class="cls-29" x="91.94" y="98.28" width="13.09" height="3.97"/><rect class="cls-29" x="108.62" y="98.28" width="13.09" height="3.97"/><rect class="cls-30" x="99.89" y="51.08" width="21.82" height="4.76" rx="2.38"/><line class="cls-31" x1="91.94" y1="70.93" x2="121.71" y2="70.93"/><circle class="cls-32" cx="94.32" cy="53.46" r="2.38"/><rect class="cls-4" x="42.41" y="83.29" width="31.72" height="56.39" rx="5.29"/><rect class="cls-5" x="44.17" y="93.86" width="28.19" height="37"/><rect class="cls-3" x="51.22" y="87.69" width="14.1" height="1.76" rx="0.88"/><line class="cls-33" x1="44.17" y1="112.44" x2="72.37" y2="112.44"/><line class="cls-34" x1="47.18" y1="117.18" x2="58.27" y2="117.18"/><line class="cls-34" x1="47.18" y1="121.67" x2="69.36" y2="121.67"/><line class="cls-34" x1="47.18" y1="126.16" x2="64.42" y2="126.16"/><line class="cls-8" x1="47.18" y1="98.18" x2="58.27" y2="98.18"/><line class="cls-8" x1="47.18" y1="107.16" x2="64.42" y2="107.16"/><line class="cls-35" x1="47.18" y1="102.67" x2="69.36" y2="102.67"/><path class="cls-32" d="M135.44,20.11l17.88,0a2.73,2.73,0,0,1,2.73,2.72l0,25.47A2.72,2.72,0,0,1,153.36,51L127.9,51a2.73,2.73,0,0,1-2.73-2.72l0-17.89Z"/><line class="cls-36" x1="131.2" y1="33.16" x2="150.16" y2="33.21"/><line class="cls-36" x1="131.17" y1="38.2" x2="150.12" y2="38.25"/><path class="cls-37" d="M135.44,20.11V28a2.37,2.37,0,0,1-2.36,2.37h-7.94Z"/><line class="cls-36" x1="131.21" y1="43.39" x2="140.28" y2="43.31"/><rect class="cls-38" x="131.14" y="154.63" width="37" height="5.29"/><path class="cls-39" d="M54.79,61.82H38.39a10.26,10.26,0,1,0,0,20.51h6.15l8.2,8.2v-8.2h2a10.26,10.26,0,1,0,0-20.51Z"/><path class="cls-40" d="M46.59,80.27H40.44a10.23,10.23,0,0,1-8.2-16.39,10.25,10.25,0,0,0,6.15,18.45h6.15l8.2,8.2v-4.1Z"/><g id="shield_security_checkup_yellow_web_120dp-copy" data-name="shield security checkup yellow web 120dp-copy"><g id="PRIVACY_Checkup_96dp" data-name="PRIVACY Checkup 96dp"><path id="Shape-3" class="cls-32" d="M149.64,150.34c0-5,8.85-9.12,18.71-9.3,9.86.18,18.71,4.28,18.71,9.3v.47a24.3,24.3,0,0,0-2.45-32.72,23.76,23.76,0,0,0-32.5,0,24.3,24.3,0,0,0-2.45,32.72Z"/><path id="Shape-4" class="cls-41" d="M187.06,150.34c0-5-8.85-9.12-18.71-9.3-9.86.18-18.71,4.28-18.71,9.3v.47a23.75,23.75,0,0,0,37.42,0Z"/><ellipse id="Oval" class="cls-41" cx="168.35" cy="127.41" rx="9.36" ry="9.44"/></g></g><path class="cls-42" d="M155,145.82v0a24.27,24.27,0,0,1,.08-30.07,22.38,22.38,0,0,0-3,2.36,24.32,24.32,0,0,0-2.47,32.71h0a23.75,23.75,0,0,0,37.42,0h0A23.75,23.75,0,0,1,155,145.82Z"/><rect class="cls-43" x="8.36" width="20" height="180"/><rect class="cls-43" x="308.36" width="20" height="180"/><rect class="cls-43" x="158.36" y="-150" width="20" height="320" transform="translate(178.36 -158.36) rotate(90)"/><rect class="cls-43" x="158.36" y="10" width="200" height="320" transform="translate(338.36 1.64) rotate(90)"/></g></g></g></svg>